# xmcd CD database file generated by Grip 2.91
# 
# Track frame offsets:
#       150
#       15517
#       26532
#       58800
#       70487
#       88270
#       102587
#       118242
#       154237
# 
# Disc length: 2308 seconds
# 
# Revision: 3
# Processed by: cddbd v1.4PL0 Copyright (c) Steve Scherf et al.
# Submitted via: Grip 2.91
# 
DISCID=7d090209
DTITLE=Taste - Taste
DYEAR=1900
DGENRE=
TTITLE0=Blister On The Moon
TTITLE1=Leaving Blues
TTITLE2=Sugar Mama
TTITLE3=Hail
TTITLE4=Born On The Wrong Side of Time
TTITLE5=Dual Carriageway Pain
TTITLE6=Same Old Story
TTITLE7=Catfish
TTITLE8=I'm Moving on
EXTD=
EXTT0=
EXTT1=
EXTT2=
EXTT3=
EXTT4=
EXTT5=
EXTT6=
EXTT7=
EXTT8=
PLAYORDER=
